<?xml version="1.0" standalone="no"?>
<!DOCTYPE svg PUBLIC "-//W3C//DTD SVG 20010904//EN"
 "http://www.w3.org/TR/2001/REC-SVG-20010904/DTD/svg10.dtd">
<svg version="1.0" xmlns="http://www.w3.org/2000/svg"
 width="700.000000pt" height="700.000000pt" viewBox="0 0 700.000000 700.000000"
 preserveAspectRatio="xMidYMid meet">
<metadata>
Created by potrace 1.14, written by Peter Selinger 2001-2017
</metadata>
<g transform="translate(0.000000,700.000000) scale(0.100000,-0.100000)"
fill="#000000" stroke="none">
<path d="M1928 6306 c-1 -2 -48 -6 -103 -9 -94 -6 -130 -10 -181 -22 -12 -3
-39 -7 -60 -11 -21 -3 -46 -9 -54 -14 -8 -4 -29 -10 -46 -13 -106 -20 -320
-128 -460 -233 -72 -54 -264 -237 -324 -309 -175 -211 -331 -476 -443 -750
-103 -253 -195 -617 -223 -880 -2 -22 -6 -53 -9 -70 -26 -176 -27 -808 0 -995
2 -14 6 -50 9 -80 4 -30 8 -62 11 -70 2 -8 6 -37 10 -65 3 -27 10 -69 16 -93
5 -23 12 -59 15 -80 18 -114 114 -435 169 -567 72 -174 161 -344 252 -483 35
-54 112 -161 123 -172 3 -3 23 -27 45 -55 50 -63 245 -259 305 -307 166 -131
410 -250 580 -282 14 -3 50 -10 80 -16 83 -16 183 -24 305 -24 139 1 200 8
340 38 146 31 379 130 518 219 31 20 60 37 63 37 3 0 12 6 20 14 7 8 19 16 25
18 9 3 12 189 11 769 0 420 -1 777 -1 794 -1 27 -5 23 -51 -45 -250 -377 -519
-561 -820 -562 -58 0 -116 2 -130 5 -147 32 -215 58 -308 121 -202 135 -378
389 -471 676 -39 120 -56 194 -77 330 -26 165 -25 591 0 740 3 14 7 41 10 60
71 477 315 874 627 1020 213 99 466 98 669 -4 102 -51 141 -78 234 -167 101
-95 178 -187 259 -308 32 -47 57 -83 58 -80 1 5 1 1550 0 1571 -2 41 -369 233
-541 283 -112 32 -238 55 -330 61 -52 3 -100 7 -107 9 -6 2 -13 2 -15 1z"/>
<path d="M3010 6171 c0 -5 132 -452 149 -506 18 -55 223 -740 231 -770 5 -16
27 -91 50 -165 23 -74 44 -146 46 -159 3 -14 8 -29 11 -34 3 -5 9 -23 13 -41
4 -17 37 -128 73 -246 36 -118 77 -253 91 -300 36 -125 168 -566 191 -640 16
-51 41 -133 80 -265 15 -49 40 -134 56 -187 16 -54 43 -144 60 -200 17 -57 37
-123 45 -148 12 -40 79 -265 134 -450 11 -36 42 -141 70 -235 66 -218 212
-705 257 -860 20 -66 39 -122 43 -125 5 -3 183 -5 396 -5 l388 0 7 25 c4 14
60 198 124 410 64 212 118 392 120 400 2 8 56 188 120 400 116 381 184 608
250 830 19 63 55 183 80 265 25 83 48 157 50 165 2 8 53 182 115 385 61 204
161 534 221 735 60 201 120 401 134 445 14 44 104 343 200 665 97 322 178 592
180 600 4 14 -57 15 -544 15 -302 0 -552 -2 -555 -5 -5 -6 -31 -104 -230 -890
-58 -228 -151 -595 -206 -815 -56 -220 -103 -407 -105 -415 -2 -8 -13 -49 -24
-90 -11 -41 -22 -86 -25 -100 -3 -14 -26 -106 -51 -205 -26 -99 -48 -187 -50
-195 -2 -8 -10 -42 -19 -75 -9 -33 -19 -69 -21 -80 -4 -19 -24 -104 -45 -190
-5 -22 -23 -112 -39 -200 -33 -177 -45 -238 -46 -245 -1 -3 -7 -48 -15 -100
-14 -97 -20 -98 -33 -7 -3 18 -14 84 -25 147 -21 113 -31 175 -37 215 -15 107
-50 250 -365 1480 -45 176 -83 327 -85 335 -2 8 -38 148 -80 310 -42 162 -78
306 -81 320 -2 14 -7 32 -10 40 -3 8 -39 147 -80 310 -41 162 -81 316 -89 343
-8 26 -12 47 -10 47 2 0 -2 15 -10 33 l-13 32 -546 0 c-300 0 -546 -2 -546 -4z"/>
</g>
</svg>
